<?xml version="1.0" encoding="UTF-8"?>
<svg xmlns="http://www.w3.org/2000/svg" xmlns:xlink="http://www.w3.org/1999/xlink" width="50px" height="50px" viewBox="0 0 50 50" version="1.1">
<g id="surface1">
<path style=" stroke:none;fill-rule:nonzero;fill:rgb(0%,76.862746%,70.19608%);fill-opacity:1;" d="M 13.75 13.632812 L 10.507812 10.390625 L 10.507812 33.710938 L 10.546875 34.804688 C 10.546875 35.3125 10.625 35.898438 10.820312 36.484375 L 36.445312 45.507812 L 42.8125 42.695312 Z M 13.75 13.632812 "/>
<path style=" stroke:none;fill-rule:nonzero;fill:rgb(13.333334%,82.745099%,77.254903%);fill-opacity:1;" d="M 10.820312 36.484375 Z M 42.8125 42.695312 L 36.445312 45.507812 L 10.898438 36.484375 C 11.40625 38.359375 12.460938 40.429688 13.632812 41.640625 L 21.953125 49.921875 L 40.546875 49.960938 Z M 42.8125 42.695312 "/>
<path style=" stroke:none;fill-rule:nonzero;fill:rgb(0%,45.882353%,78.823531%);fill-opacity:1;" d="M 0.664062 25.429688 C -0.15625 26.289062 0.273438 28.125 1.5625 29.492188 L 7.304688 35.273438 L 10.898438 36.5625 C 10.78125 35.976562 10.625 35.390625 10.625 34.882812 L 10.585938 33.789062 L 10.507812 10.429688 M 42.8125 42.695312 L 45.625 36.289062 L 36.640625 10.664062 C 36.054688 10.546875 35.46875 10.429688 34.960938 10.390625 L 33.828125 10.351562 L 10.546875 10.390625 "/>
<path style=" stroke:none;fill-rule:nonzero;fill:rgb(0%,65.882355%,88.235295%);fill-opacity:1;" d="M 36.5625 10.664062 C 36.640625 10.664062 36.640625 10.664062 36.5625 10.664062 C 36.640625 10.664062 36.640625 10.664062 36.5625 10.664062 Z M 42.8125 42.695312 L 49.726562 40.429688 L 49.726562 21.40625 L 41.757812 13.398438 C 40.585938 12.226562 38.515625 11.132812 36.601562 10.664062 L 45.625 36.289062 "/>
<path style=" stroke:none;fill-rule:nonzero;fill:rgb(0%,76.862746%,70.19608%);fill-opacity:1;" d="M 35.351562 7.109375 L 29.570312 1.367188 C 28.242188 0.0390625 26.445312 -0.351562 25.507812 0.46875 L 10.507812 10.390625 L 33.75 10.390625 L 34.882812 10.429688 C 35.390625 10.429688 35.976562 10.507812 36.5625 10.703125 Z M 35.351562 7.109375 "/>
</g>
</svg>
